<svg width="24" height="24" viewBox="0 0 24 24" fill="none" xmlns="http://www.w3.org/2000/svg">
<g id="coinIcon">
<g id="Oval">
<path fill-rule="evenodd" clip-rule="evenodd" d="M12.3689 23.1477C18.6486 23.1477 23.7393 18.057 23.7393 11.7773C23.7393 5.49767 18.6486 0.406982 12.3689 0.406982C6.08922 0.406982 0.998535 5.49767 0.998535 11.7773C0.998535 18.057 6.08922 23.1477 12.3689 23.1477Z" fill="#25292E"/>
<path fill-rule="evenodd" clip-rule="evenodd" d="M12.3689 23.1477C18.6486 23.1477 23.7393 18.057 23.7393 11.7773C23.7393 5.49767 18.6486 0.406982 12.3689 0.406982C6.08922 0.406982 0.998535 5.49767 0.998535 11.7773C0.998535 18.057 6.08922 23.1477 12.3689 23.1477Z" fill="url(#paint0_linear_57_8)" fill-opacity="0.3"/>
</g>
<path id="ethLogoBottom" d="M7.65015 12.4034L12.3688 15.1951L17.0866 12.4034L12.3688 19.0538L7.65015 12.4034Z" fill="url(#paint1_linear_57_8)"/>
<path id="ethLogoTop" d="M12.3688 14.1552L7.65015 11.3635L12.3688 3.93176L17.0875 11.3635L12.3688 14.1552Z" fill="white"/>
</g>
<defs>
<linearGradient id="paint0_linear_57_8" x1="0.998535" y1="0.406982" x2="12.3689" y2="23.1477" gradientUnits="userSpaceOnUse">
<stop stop-color="white"/>
<stop offset="1" stop-color="white" stop-opacity="0"/>
</linearGradient>
<linearGradient id="paint1_linear_57_8" x1="12.3684" y1="12.4034" x2="12.3684" y2="19.0538" gradientUnits="userSpaceOnUse">
<stop stop-color="white"/>
<stop offset="1" stop-color="white" stop-opacity="0.9"/>
</linearGradient>
</defs>
</svg>
