<svg width="80" height="80" viewBox="0 0 80 80" fill="none" xmlns="http://www.w3.org/2000/svg">
<rect x="6" y="6" width="68" height="68" rx="34" fill="#FF3131"/>
<rect x="6" y="6" width="68" height="68" rx="34" fill="url(#paint0_linear_10_638)" fill-opacity="0.3"/>
<path d="M28.3872 50.5735C34.9614 50.5735 40.1909 45.2245 40.1909 37.4998C40.1909 32.1806 36.6349 28.266 30.5238 28.266C23.9347 28.266 18.75 33.63 18.75 41.3397C18.75 46.6738 22.3957 50.5735 28.3872 50.5735ZM30.4043 32.7185C32.9742 32.7185 34.6327 34.6908 34.6327 37.8135C34.6327 42.4155 31.9283 46.121 28.5366 46.121C25.9667 46.121 24.3231 44.1188 24.3231 41.0259C24.3231 36.4389 27.0126 32.7185 30.4043 32.7185Z" fill="white"/>
<path d="M45.9062 28.6395L41.3341 50.2H46.8176L48.1623 43.8798H51.7333C57.6352 43.8798 61.4751 40.5329 61.4751 35.139C61.4751 31.2244 58.6362 28.6395 53.9446 28.6395H45.9062ZM50.4932 32.853H52.8091C54.8112 32.853 55.9617 33.7794 55.9617 35.6321C55.9617 38.0526 54.3032 39.741 51.7333 39.741H49.0289L50.4932 32.853Z" fill="white"/>
<defs>
<linearGradient id="paint0_linear_10_638" x1="6" y1="6" x2="40" y2="74" gradientUnits="userSpaceOnUse">
<stop stop-color="white"/>
<stop offset="1" stop-color="white" stop-opacity="0"/>
</linearGradient>
</defs>
</svg>
