<svg width="80" height="80" viewBox="0 0 80 80" fill="none" xmlns="http://www.w3.org/2000/svg">
<rect x="6" y="6" width="68" height="68" rx="34" fill="#8247E5"/>
<rect x="6" y="6" width="68" height="68" rx="34" fill="url(#paint0_linear_10_640)" fill-opacity="0.3"/>
<path d="M50.3884 32.5175C49.6356 32.0658 48.657 32.0658 47.829 32.5175L41.9574 35.9802L37.9677 38.2385L32.0962 41.7012C31.3434 42.1529 30.3648 42.1529 29.5368 41.7012L24.8696 38.9913C24.1168 38.5396 23.5899 37.7116 23.5899 36.8083V31.4636C23.5899 30.5603 24.0415 29.7322 24.8696 29.2806L29.4615 26.6459C30.2142 26.1942 31.1928 26.1942 32.0209 26.6459L36.6128 29.2806C37.3655 29.7322 37.8925 30.5603 37.8925 31.4636V34.9263L41.8821 32.5928V29.13C41.8821 28.2267 41.4305 27.3987 40.6024 26.947L32.0962 21.9787C31.3434 21.5271 30.3648 21.5271 29.5368 21.9787L20.8799 26.947C20.0519 27.3987 19.6002 28.2267 19.6002 29.13V39.1418C19.6002 40.0452 20.0519 40.8732 20.8799 41.3249L29.5368 46.2931C30.2895 46.7448 31.2681 46.7448 32.0962 46.2931L37.9677 42.9057L41.9574 40.5721L47.829 37.1846C48.5818 36.733 49.5604 36.733 50.3884 37.1846L54.9803 39.8193C55.7331 40.271 56.26 41.099 56.26 42.0024V47.347C56.26 48.2503 55.8083 49.0784 54.9803 49.53L50.3884 52.24C49.6356 52.6917 48.657 52.6917 47.829 52.24L43.2371 49.6053C42.4844 49.1536 41.9574 48.3256 41.9574 47.4223V43.9595L37.9677 46.2931V49.7559C37.9677 50.6592 38.4194 51.4872 39.2475 51.9389L47.9043 56.9071C48.657 57.3588 49.6356 57.3588 50.4637 56.9071L59.1205 51.9389C59.8733 51.4872 60.4002 50.6592 60.4002 49.7559V39.7441C60.4002 38.8407 59.9486 38.0127 59.1205 37.561L50.3884 32.5175Z" fill="white"/>
<defs>
<linearGradient id="paint0_linear_10_640" x1="6" y1="6" x2="40" y2="74" gradientUnits="userSpaceOnUse">
<stop stop-color="white"/>
<stop offset="1" stop-color="white" stop-opacity="0"/>
</linearGradient>
</defs>
</svg>
