<svg width="23" height="24" viewBox="0 0 23 24" fill="none" xmlns="http://www.w3.org/2000/svg">
<g id="light">
<g id="Rectangle 304">
<rect x="0.0979004" y="0.406982" width="22.7407" height="22.7407" rx="11.3704" fill="#FF3131"/>
<rect x="0.0979004" y="0.406982" width="22.7407" height="22.7407" rx="11.3704" fill="url(#paint0_linear_57_3)" fill-opacity="0.3"/>
</g>
<g id="OP">
<path d="M7.58471 15.3134C9.78328 15.3134 11.5321 13.5246 11.5321 10.9413C11.5321 9.16242 10.3429 7.85327 8.29925 7.85327C6.09569 7.85327 4.36182 9.6471 4.36182 12.2254C4.36182 14.0093 5.58102 15.3134 7.58471 15.3134ZM8.25927 9.3423C9.11871 9.3423 9.67335 10.0019 9.67335 11.0462C9.67335 12.5852 8.76894 13.8244 7.63468 13.8244C6.77524 13.8244 6.2256 13.1548 6.2256 12.1205C6.2256 10.5865 7.12501 9.3423 8.25927 9.3423Z" fill="white"/>
<path d="M13.4434 7.97819L11.9144 15.1885H13.7483L14.198 13.0749H15.3922C17.3659 13.0749 18.6501 11.9556 18.6501 10.1518C18.6501 8.84263 17.7007 7.97819 16.1317 7.97819H13.4434ZM14.9774 9.38727H15.7519C16.4215 9.38727 16.8063 9.69707 16.8063 10.3167C16.8063 11.1261 16.2516 11.6908 15.3922 11.6908H14.4878L14.9774 9.38727Z" fill="white"/>
</g>
</g>
<defs>
<linearGradient id="paint0_linear_57_3" x1="0.0979004" y1="0.406982" x2="11.4683" y2="23.1477" gradientUnits="userSpaceOnUse">
<stop stop-color="white"/>
<stop offset="1" stop-color="white" stop-opacity="0"/>
</linearGradient>
</defs>
</svg>
